<svg xmlns="http://www.w3.org/2000/svg" width="512" height="512" viewBox="0 0 135.46667 135.46667">
    <path d="M113.693 46.177c11.977 25.084 1.206 55.198-24.06 67.262-25.264 12.064-55.455 1.509-67.432-23.575 9.136 5.668 20.278 10.647 28.116 11.41 31.333 3.053 52.868-17.354 48.022-50.824-1.338-9.236-6.672-18.856-13.38-29.991 12.202 4.266 22.745 13.175 28.734 25.718z"
          fill="#ffd739" paint-order="stroke fill markers"/>
    <path d="M63.012 43.273L51.084 31.652 39.24 43.432l7.367-14.934-14.864-7.623 16.48 2.391L50.88 6.774l2.818 16.412 16.506-2.57-14.738 7.753zm-32.92 26.414l-7.177-6.992-7.124 7.088 4.431-8.985-8.942-4.586 9.915 1.438 1.598-9.922 1.696 9.874 9.93-1.546-8.867 4.665zm.072-26.34l-5.725-5.578-5.684 5.654 3.536-7.168-7.134-3.659 7.91 1.148 1.275-7.916 1.352 7.878 7.922-1.234-7.073 3.721z"
          opacity=".755" fill="#999"/>
</svg>