<svg xmlns="http://www.w3.org/2000/svg" width="512" height="512" viewBox="0 0 135.46667 135.46667">
    <g fill-rule="evenodd">
        <path d="M49.999 54.124c-13.75-10.282-30.83 2.293-24.178 16.598-25.986-2.105-26.224 32.006-5.044 34.631 6.31-.039 89.272-.51 89.272-.51 26.41.077 27.512-42.795-2.919-42.34 8.664-36.716-55.545-45.84-57.131-8.38z"
              fill="#c5c5c5"/>
        <path d="M25.17 100.278c-14.125.526-17.217-4.102-19.099-8.214 1.544 6.887 7.053 12.34 14.706 13.288 6.31-.039 89.272-.51 89.272-.51 15.226.038 22.04-14.188 19.249-26.161-.05 5.789-3.103 20.383-17.462 20.712-14.36.329-86.666.885-86.666.885z"
              fill-opacity=".181"/>
    </g>
</svg>