<svg xmlns="http://www.w3.org/2000/svg" xmlns:xlink="http://www.w3.org/1999/xlink" width="512" height="512"
     viewBox="0 0 135.46667 135.46667">
    <defs>
        <linearGradient xlink:href="#a" id="b" gradientUnits="userSpaceOnUse"
                        gradientTransform="matrix(.85376 0 0 .96041 -12.027 2.291)" x1="47.923" y1="72.413" x2="47.914"
                        y2="62.985"/>
        <linearGradient id="a">
            <stop offset="0" stop-color="#9f9f9f" stop-opacity="0"/>
            <stop offset=".5" stop-color="#c5c5c5"/>
            <stop offset="1" stop-color="#9f9f9f" stop-opacity="0"/>
        </linearGradient>
    </defs>
    <path d="M24.934 72.323s-.758-1.013-.758-1.954c0-.94 1.316-1.055 1.316-1.996 0-.94-1.11-1.034-1.11-1.974 0-.941 1.364-1.118 1.364-2.059 0-.94-1.828-1.995-1.828-1.995h8.376s1.471 1.054 1.471 1.995c0 .94-1.47 1.055-1.47 1.996 0 .94 1.233 1.055 1.233 1.995 0 .941-1.453 1.055-1.453 1.996 0 .94 1.69 1.996 1.69 1.996z"
          fill="url(#b)" transform="matrix(12.62853 0 0 10.11348 -296.492 -613.244)"/>
</svg>