<svg xmlns="http://www.w3.org/2000/svg" width="512" height="512" viewBox="0 0 135.46667 135.46667">
    <g fill-rule="evenodd">
        <path d="M49.999 54.124c-13.75-10.282-30.83 2.293-24.178 16.598-25.986-2.105-26.224 32.006-5.044 34.631 6.31-.039 89.272-.51 89.272-.51 26.41.077 27.512-42.795-2.919-42.34 8.664-36.716-55.545-45.84-57.131-8.38z"
              fill="#c5c5c5"/>
        <path d="M25.17 100.278c-14.125.526-17.217-4.102-19.099-8.214 1.544 6.887 7.053 12.34 14.706 13.288 6.31-.039 89.272-.51 89.272-.51 15.226.038 22.04-14.188 19.249-26.161-.05 5.789-3.103 20.383-17.462 20.712-14.36.329-86.666.885-86.666.885z"
              fill-opacity=".181"/>
    </g>
    <path d="M72.853 76.666q0-2.046.208-3.665.209-1.65.696-3.024.521-1.374 1.355-2.565.87-1.191 2.121-2.352.939-.916 1.738-1.771.8-.886 1.356-1.772.59-.886.904-1.833.347-.946.347-2.046 0-5.1-3.754-5.1-.66 0-1.356.305-.695.275-1.286.916-.556.642-.939 1.619-.347.977-.382 2.352h-9.838q.035-3.207 1.113-5.56 1.077-2.35 2.92-3.878 1.877-1.527 4.345-2.26 2.503-.764 5.423-.764 3.198 0 5.701.794 2.538.794 4.276 2.322 1.773 1.527 2.711 3.756.94 2.23.94 5.132 0 1.985-.627 3.604-.625 1.618-1.634 3.054-1.008 1.405-2.329 2.749-1.32 1.313-2.711 2.688-.765.794-1.286 1.588-.487.794-.8 1.68-.278.855-.417 1.863-.14.977-.174 2.168zm-.904 9.346q0-1.008.382-1.863.383-.855 1.078-1.466.695-.641 1.669-1.008 1.008-.366 2.225-.366 1.251 0 2.224.366 1.008.367 1.704 1.008.695.611 1.077 1.466.383.855.383 1.863t-.383 1.864q-.382.855-1.077 1.496-.696.642-1.704.977-.973.367-2.224.367-1.217 0-2.225-.367-.974-.335-1.669-.977-.695-.641-1.078-1.496-.382-.856-.382-1.864z"
          fill="#4d4d4d" style="line-height:1.25;-inkscape-font-specification:'Roboto Condensed, Bold'"/>
</svg>