<svg xmlns="http://www.w3.org/2000/svg" width="512" height="512" viewBox="0 0 135.46667 135.46667">
    <g transform="translate(27.943 -132.12) scale(9.17795)">
        <ellipse ry="3.773" rx="3.8" cy="20.777" cx="7.31" fill="#ffd739" paint-order="stroke fill markers"/>
        <path d="M9.914 23.543a3.797 3.797 0 0 1-3.372.925 3.872 3.872 0 0 1-2.032-1.14c4.924 2.637 7.302-2.108 5.548-5.155.435.462.734 1.002.898 1.569a3.75 3.75 0 0 1-1.042 3.8z"
              fill-opacity=".157" paint-order="stroke fill markers"/>
    </g>
    <g fill-rule="evenodd">
        <path d="M49.999 63.709c-13.75-10.282-30.83 2.293-24.178 16.598-25.986-2.105-26.224 32.006-5.044 34.632 6.31-.04 89.272-.511 89.272-.511 26.41.078 27.512-42.795-2.919-42.34 8.664-36.716-55.545-45.84-57.131-8.38z"
              fill="#c5c5c5"/>
        <path d="M25.17 109.863c-14.125.526-17.217-4.102-19.099-8.214 1.544 6.888 7.053 12.34 14.706 13.289 6.31-.04 89.272-.511 89.272-.511 15.226.039 22.04-14.188 19.249-26.161-.05 5.789-3.103 20.383-17.462 20.712-14.36.33-86.666.885-86.666.885z"
              fill-opacity=".181"/>
    </g>
</svg>