<svg xmlns="http://www.w3.org/2000/svg" width="512" height="512" viewBox="0 0 135.46667 135.46667">
    <path d="M123.374 35.376c8.14 17.34.581 38.044-16.883 46.243-17.466 8.2-38.223.788-46.364-16.551 6.27 3.947 13.927 7.428 19.324 7.99 21.58 2.245 36.512-11.72 33.324-34.807-.88-6.37-4.513-13.024-9.086-20.728 8.39 2.996 15.615 9.182 19.685 17.853z"
          fill="#ffd739" paint-order="stroke fill markers"/>
    <path d="M123.374 35.376c8.14 17.34.581 38.044-16.883 46.243-17.466 8.2-38.223.788-46.364-16.551 8.328 10.437 14.89 12.954 19.962 14.888 24.978 9.53 49.357-10.676 43.49-37.883-2.873-13.324-13.333-20.608-19.89-24.55 8.39 2.996 15.615 9.182 19.685 17.853z"
          fill-opacity=".081" paint-order="stroke fill markers"/>
    <path d="M6.255 63.636l6.62-7.4-7.319-6.756 9.084 4.01 4.164-9.048-1.006 9.878 9.892 1.163-9.705 2.096 1.95 9.767-4.993-8.582zm17.012-18.508l1.019-7.426-7.433-1.14 7.378-1.325-1.214-7.422 3.54 6.608 6.683-3.448-5.19 5.41 5.345 5.29-6.748-3.264zm14.124 8.955l1.574-5.52-5.512-1.666 5.736-.21-.12-5.758 1.973 5.392 5.439-1.893-4.52 3.542 3.483 4.587-4.765-3.203z"
          opacity=".755" fill="#999"/>
    <g fill-rule="evenodd">
        <path d="M49.999 63.709c-13.75-10.282-30.83 2.293-24.178 16.598-25.986-2.105-26.224 32.006-5.044 34.632 6.31-.04 89.272-.511 89.272-.511 26.41.078 27.512-42.795-2.919-42.34 8.664-36.716-55.545-45.84-57.131-8.38z"
              fill="#c5c5c5"/>
        <path d="M25.17 109.863c-14.125.526-17.217-4.102-19.099-8.214 1.544 6.888 7.053 12.34 14.706 13.289 6.31-.04 89.272-.511 89.272-.511 15.226.039 22.04-14.188 19.249-26.161-.05 5.789-3.103 20.383-17.462 20.712-14.36.33-86.666.885-86.666.885z"
              fill-opacity=".181"/>
    </g>
</svg>