<svg xmlns="http://www.w3.org/2000/svg" width="512" height="512" viewBox="0 0 135.46667 135.46667">
    <g fill-rule="evenodd">
        <path d="M50.451 29.485c-13.4-10.02-30.044 2.235-23.562 16.175-25.324-2.05-25.555 31.19-4.915 33.75 6.148-.039 86.997-.499 86.997-.499 25.737.076 26.81-41.704-2.845-41.26 8.443-35.78-54.129-44.673-55.675-8.166z"
              fill="#c5c5c5"/>
        <path d="M26.255 74.463c-13.765.513-16.778-3.997-18.612-8.004 1.504 6.711 6.873 12.025 14.331 12.95 6.148-.039 86.997-.499 86.997-.499 14.838.038 21.478-13.826 18.758-25.494-.049 5.642-3.024 19.864-17.017 20.185-13.994.32-84.457.862-84.457.862z"
              fill-opacity=".181"/>
    </g>
    <path d="M32.3 83.03s2.296 15.254-.335 18.952c-2.632 3.698-8.247 4.327-11.24 2.969-2.994-1.358-5.081-5.418-3.626-9.896 1.455-4.478 15.2-12.025 15.2-12.025zm35.928 0s2.296 15.254-.335 18.952c-2.632 3.698-8.247 4.327-11.24 2.969-2.994-1.358-5.081-5.418-3.626-9.896 1.455-4.478 15.2-12.025 15.2-12.025zm35.928 0s2.296 15.254-.335 18.952c-2.632 3.698-8.247 4.327-11.24 2.969-2.994-1.358-5.081-5.418-3.626-9.896 1.455-4.478 15.2-12.025 15.2-12.025zm-58.655 23.771s2.296 15.254-.335 18.952c-2.632 3.698-8.247 4.327-11.24 2.97-2.994-1.359-5.08-5.419-3.626-9.897 1.455-4.478 15.2-12.025 15.2-12.025zm35.929 0s2.295 15.254-.336 18.952c-2.632 3.698-8.247 4.327-11.24 2.97-2.994-1.359-5.08-5.419-3.626-9.897 1.455-4.478 15.2-12.025 15.2-12.025z"
          fill="#647dff" fill-rule="evenodd"/>
</svg>