<svg xmlns="http://www.w3.org/2000/svg" width="512" height="512" viewBox="0 0 135.46667 135.46667">
    <path d="M50.451 29.485c-13.4-10.02-30.044 2.235-23.562 16.175-25.324-2.05-25.555 31.19-4.915 33.75 6.148-.039 86.997-.499 86.997-.499 25.737.076 26.81-41.704-2.845-41.26 8.443-35.78-54.129-44.673-55.675-8.166z"
          fill="#c5c5c5" fill-rule="evenodd"/>
    <path d="M26.255 74.463c-13.765.513-16.778-3.997-18.612-8.004 1.504 6.711 6.873 12.025 14.331 12.95 6.148-.039 86.997-.499 86.997-.499 14.838.038 21.478-13.826 18.758-25.494-.049 5.642-3.024 19.864-17.017 20.185-13.994.32-84.457.862-84.457.862z"
          fill-opacity=".181" fill-rule="evenodd"/>
    <ellipse ry="7.967" rx="7.81" cy="117.528" cx="85.697" fill="#657eff"/>
    <ellipse ry="7.967" rx="7.81" cy="117.528" cx="49.769" fill="#657eff"/>
    <ellipse ry="7.967" rx="7.81" cy="94.319" cx="31.805" fill="#657eff"/>
    <ellipse ry="7.967" rx="7.81" cy="94.319" cx="67.733" fill="#657eff"/>
    <ellipse ry="7.967" rx="7.81" cy="94.319" cx="103.661" fill="#657eff"/>
</svg>