<svg xmlns="http://www.w3.org/2000/svg" xmlns:xlink="http://www.w3.org/1999/xlink" viewBox="0 0 135.46667 135.46667"
     height="512" width="512">
    <defs>
        <linearGradient id="a">
            <stop offset="0" stop-color="#323232"/>
            <stop offset="1" stop-color="#868686"/>
        </linearGradient>
        <linearGradient xlink:href="#a" id="b" gradientUnits="userSpaceOnUse" x1="121.588" y1="-335.117" x2="121.587"
                        y2="-263.852"/>
    </defs>
    <path d="M21.104-331.904c15.15-2.82 34.298-2.237 50.466-1.844 16.167.393 31.945 3.773 39.449 4.795 7.504 1.022 5.872 1.073 10.519 1.053a5.06 5.06 0 0 1 .099 0c4.647.02 3.015-.031 10.519-1.053 7.503-1.022 23.281-4.402 39.449-4.795 16.167-.393 35.316-.975 50.466 1.844.233 4.992.501 8.471.42 13.61-5.74 3.514-.904 29.833-10.326 41.28-5.327 6.473-12.679 9.53-16.787 10.51-14.676 3.505-27.854 3.771-42.11-.613-5.332-1.85-11.6-5.035-15.637-11.41-6.245-9.863-8.933-17.612-11.026-31.121-.439-2.837-1.231-3.936-5.018-4.015-3.786.079-4.578 1.178-5.018 4.015-2.093 13.509-4.78 21.258-11.025 31.12-4.038 6.376-10.305 9.561-15.638 11.411-14.255 4.384-27.433 4.118-42.11.613-4.107-.98-11.46-4.037-16.786-10.51-9.422-11.447-4.586-37.766-10.326-41.28-.082-5.139.187-8.618.42-13.61z"
          fill="url(#b)" transform="translate(-7.178 251.93) scale(.61611)"/>
</svg>
