<svg xmlns="http://www.w3.org/2000/svg" xmlns:xlink="http://www.w3.org/1999/xlink" viewBox="0 0 135.46667 135.46667"
     height="512" width="512">
    <defs>
        <linearGradient id="b">
            <stop offset="0" stop-color="#fff"/>
            <stop offset="1" stop-color="#fff" stop-opacity="0"/>
        </linearGradient>
        <linearGradient id="a">
            <stop offset="0"/>
            <stop offset="1" stop-opacity="0"/>
        </linearGradient>
        <linearGradient xlink:href="#a" id="c" x1="67.735" y1="129.225" x2="67.543" y2="43.913"
                        gradientUnits="userSpaceOnUse" gradientTransform="matrix(1.07912 0 0 .92375 -5.156 8.471)"/>
        <linearGradient xlink:href="#b" id="d" x1="67.693" y1="126.569" x2="67.41" y2="49.508"
                        gradientUnits="userSpaceOnUse"/>
    </defs>
    <path d="M4.611 135.286c-.158-.027-.5-.31-.58-.48-.1-.214-.122-.601-.051-.884 30.952-84.685 0 0 30.511-84.43a.907.907 0 0 1 .44-.255c.182-.054 3.524-.06 32.447-.06 28.958 0 32.265.006 32.451.06.247.072.472.25.537.422 9.38 25.362 19.07 51.617 29.2 78.975 1.82 4.915 1.93 5.23 1.954 5.57.02.289.008.397-.062.562-.099.236-.392.484-.618.523-.157.026-126.067.024-126.228-.002zm66.805-9.231c-.34-13.212-.476-18.267-.497-18.528l-.026-.323h-3.269c-2.573 0-3.274.01-3.29.049-.025.054-.388 19.23-.365 19.262.007.011 1.689.015 3.736.01l3.723-.01zm-.764-28.79c-.013-.21-.035-.867-.049-1.46-.014-.592-.086-3.36-.16-6.15-.075-2.79-.136-5.147-.136-5.239v-.166h-5.583v.401c0 .221-.021 1.468-.046 2.772-.089 4.532-.183 9.657-.183 9.94v.283h6.181l-.024-.382zm-.55-20.526c-.016-.361-.068-2.207-.116-4.103a699.784 699.784 0 0 0-.118-4.26l-.03-.813h-2.397c-2.252 0-2.397.004-2.397.069l-.091 4.73c-.05 2.563-.09 4.745-.091 4.847v.186h5.266l-.028-.656zm-.391-14.435c0-.048-.041-1.524-.091-3.28a304.33 304.33 0 0 1-.09-3.672l-.001-.48h-4.256v.264c-.001.146-.032 1.763-.068 3.594-.037 1.831-.068 3.404-.068 3.496l-.001.167h4.576l-.001-.089z"
          fill="url(#c)"/>
    <path d="M65.273 54.872h4.256l.183 7.52h-4.576zm-.25 12.677l4.815.014.291 9.832h-5.268zm-.299 16.701h5.582l.37 13.396h-6.181zm-.428 22.92l6.696-.038.436 19.38-.003.003h-7.463z"
          fill="url(#d)"/>
</svg>
