<svg xmlns="http://www.w3.org/2000/svg" viewBox="0 0 135.46667 135.46667" height="512" width="512">
    <path d="M20.437 71.367v51.42s-.003 4.179 4.276 4.192c4.262.013 4.277-4.19 4.277-4.19V71.366z" fill="gray"/>
    <path d="M20.437 8.488c64.003 6.99 55.815 66.215 0 77.132m14.88-38.566c0 21.3-6.662 38.566-14.88 38.566S5.557 68.353 5.557 47.055c0-21.3 6.662-38.566 14.88-38.566s14.88 17.266 14.88 38.566z"
          fill="#ccc"/>
    <path d="M20.437 85.62s15.337-10.547 14.88-38.566c-.477-29.298-14.88-38.566-14.88-38.566l32.862 6.427c27.444 6.428 27.444 57.85 0 64.277z"
          fill="#f55"/>
    <path d="M53.358 79.192s12.782-8.79 12.402-32.137c-.398-24.415-12.4-32.138-12.4-32.138l27.384 6.427c21.908 6.428 21.908 44.994 0 51.422z"
          fill="#ccc"/>
    <path d="M80.743 72.765s10.225-7.032 9.92-25.711c-.318-19.532-9.92-25.71-9.92-25.71l21.908 6.427c16.43 4.82 16.43 33.745 0 38.566z"
          fill="#f55"/>
    <path d="M102.65 66.337s7.67-5.274 7.44-19.283c-.237-14.649-7.44-19.283-7.44-19.283l16.43 4.82c14.422 3.71 14.458 23.982 0 28.925z"
          fill="#ccc"/>
</svg>